<?xml version="1.0" standalone="no"?>
<!DOCTYPE svg PUBLIC "-//W3C//DTD SVG 20010904//EN"
 "http://www.w3.org/TR/2001/REC-SVG-20010904/DTD/svg10.dtd">
<svg version="1.0" xmlns="http://www.w3.org/2000/svg"
 width="128.000000pt" height="128.000000pt" viewBox="0 0 128.000000 128.000000"
 preserveAspectRatio="xMidYMid meet">
<metadata>
Created by potrace 1.14, written by Peter Selinger 2001-2017
</metadata>
<g transform="translate(0.000000,128.000000) scale(0.100000,-0.100000)"
fill="#000000" stroke="none">
<path d="M547 1142 c-15 -3 -17 -20 -17 -138 0 -123 1 -134 18 -134 17 0 19
10 18 115 -1 70 3 116 9 118 5 2 42 3 80 3 l70 -1 -1 -118 c0 -107 1 -117 18
-117 17 0 18 11 18 135 0 122 -2 135 -17 136 -57 3 -182 4 -196 1z"/>
<path d="M530 635 l0 -195 30 0 30 0 0 110 c0 86 3 110 14 110 8 0 13 -10 12
-27 -1 -19 4 -28 14 -28 10 0 14 -8 12 -28 -3 -20 1 -27 13 -27 9 0 13 -5 10
-10 -10 -16 5 -50 21 -50 8 0 14 -10 14 -25 0 -21 5 -25 30 -25 l30 0 0 195 0
195 -30 0 -30 0 0 -111 c0 -84 -3 -110 -12 -106 -7 2 -12 14 -12 25 1 13 -5
22 -12 22 -9 0 -14 11 -14 29 0 16 -6 31 -14 34 -9 4 -12 14 -9 26 3 13 0 23
-9 26 -9 4 -14 16 -12 31 2 22 -1 24 -37 24 l-39 0 0 -195z"/>
<path d="M532 263 l3 -136 80 1 c44 0 95 1 113 1 l32 1 0 135 c0 125 -1 135
-19 135 -17 0 -18 -9 -16 -107 0 -60 0 -113 -2 -119 -2 -6 -35 -10 -81 -10
l-77 1 1 118 c0 107 -1 117 -18 117 -17 0 -18 -10 -16 -137z"/>
</g>
</svg>
